<svg width="1006" height="126" viewBox="0 0 1006 126" fill="none" xmlns="http://www.w3.org/2000/svg">
<g id="Menu">
<g id="bg" filter="url(#filter0_d)">
<rect x="3" y="2" width="1000" height="120" rx="10" fill="white"/>
</g>
<g id="menu-inside">
<g id="date-group">
<g id="clickable">
<g id="bg-date" filter="url(#filter1_d)">
<rect x="53" y="60" width="213" height="30" fill="white"/>
</g>
<g id="svg-calendar">
<path id="Vector" d="M252.75 68.6667C252.229 68.3873 248.989 66.6433 247.209 65.5263C246.905 65.204 246.477 65 246 65C245.523 65 245.095 65.204 244.791 65.5263C243.01 66.643 239.771 68.3873 239.25 68.6667H236V85H256V68.6667H252.75ZM246.741 66.0013C246.742 66.003 246.743 66.005 246.744 66.0067C246.825 66.0977 246.915 66.2353 246.963 66.412C246.967 66.427 246.974 66.441 246.977 66.4567C246.991 66.5213 247 66.5913 247 66.6667C247 67.218 246.551 67.6667 246 67.6667C245.449 67.6667 245 67.218 245 66.6667C245 66.5913 245.009 66.5213 245.023 66.4567C245.026 66.4413 245.033 66.4277 245.037 66.4127C245.085 66.2353 245.175 66.098 245.256 66.0067C245.257 66.005 245.257 66.003 245.259 66.0013C245.442 65.7977 245.705 65.6667 246 65.6667C246.295 65.6667 246.558 65.7977 246.741 66.0013ZM244.335 66.5847C244.334 66.612 244.333 66.6393 244.333 66.6667C244.333 67.5857 245.081 68.3333 246 68.3333C246.919 68.3333 247.667 67.5857 247.667 66.6667C247.667 66.6393 247.666 66.612 247.665 66.5847C248.862 67.2967 250.343 68.117 251.35 68.6667H240.65C241.657 68.117 243.138 67.2967 244.335 66.5847ZM239.333 69.3333H252.667H255.333V71H236.667V69.3333H239.333ZM236.667 84.3333V71.6667H255.333V84.3333H236.667Z" fill="#BDBDBD"/>
<path id="Vector_2" d="M243.667 74.6667C243.851 74.6667 244 74.5174 244 74.3333C244 74.1492 243.851 74 243.667 74C243.483 74 243.333 74.1492 243.333 74.3333C243.333 74.5174 243.483 74.6667 243.667 74.6667Z" fill="#BDBDBD"/>
<path id="Vector_3" d="M246 74.6667C246.184 74.6667 246.333 74.5174 246.333 74.3333C246.333 74.1492 246.184 74 246 74C245.816 74 245.667 74.1492 245.667 74.3333C245.667 74.5174 245.816 74.6667 246 74.6667Z" fill="#BDBDBD"/>
<path id="Vector_4" d="M248.333 74.6667C248.517 74.6667 248.667 74.5174 248.667 74.3333C248.667 74.1492 248.517 74 248.333 74C248.149 74 248 74.1492 248 74.3333C248 74.5174 248.149 74.6667 248.333 74.6667Z" fill="#BDBDBD"/>
<path id="Vector_5" d="M250.667 74.6667C250.851 74.6667 251 74.5174 251 74.3333C251 74.1492 250.851 74 250.667 74C250.483 74 250.333 74.1492 250.333 74.3333C250.333 74.5174 250.483 74.6667 250.667 74.6667Z" fill="#BDBDBD"/>
<path id="Vector_6" d="M253 74.6667C253.184 74.6667 253.333 74.5174 253.333 74.3333C253.333 74.1492 253.184 74 253 74C252.816 74 252.667 74.1492 252.667 74.3333C252.667 74.5174 252.816 74.6667 253 74.6667Z" fill="#BDBDBD"/>
<path id="Vector_7" d="M239 77.3334C239.184 77.3334 239.333 77.1841 239.333 77C239.333 76.8159 239.184 76.6667 239 76.6667C238.816 76.6667 238.667 76.8159 238.667 77C238.667 77.1841 238.816 77.3334 239 77.3334Z" fill="#BDBDBD"/>
<path id="Vector_8" d="M241.333 77.3334C241.517 77.3334 241.667 77.1841 241.667 77C241.667 76.8159 241.517 76.6667 241.333 76.6667C241.149 76.6667 241 76.8159 241 77C241 77.1841 241.149 77.3334 241.333 77.3334Z" fill="#BDBDBD"/>
<path id="Vector_9" d="M243.667 77.3334C243.851 77.3334 244 77.1841 244 77C244 76.8159 243.851 76.6667 243.667 76.6667C243.483 76.6667 243.333 76.8159 243.333 77C243.333 77.1841 243.483 77.3334 243.667 77.3334Z" fill="#BDBDBD"/>
<path id="Vector_10" d="M246 77.3334C246.184 77.3334 246.333 77.1841 246.333 77C246.333 76.8159 246.184 76.6667 246 76.6667C245.816 76.6667 245.667 76.8159 245.667 77C245.667 77.1841 245.816 77.3334 246 77.3334Z" fill="#BDBDBD"/>
<path id="Vector_11" d="M248.333 77.3334C248.517 77.3334 248.667 77.1841 248.667 77C248.667 76.8159 248.517 76.6667 248.333 76.6667C248.149 76.6667 248 76.8159 248 77C248 77.1841 248.149 77.3334 248.333 77.3334Z" fill="#BDBDBD"/>
<path id="Vector_12" d="M250.667 77.3334C250.851 77.3334 251 77.1841 251 77C251 76.8159 250.851 76.6667 250.667 76.6667C250.483 76.6667 250.333 76.8159 250.333 77C250.333 77.1841 250.483 77.3334 250.667 77.3334Z" fill="#BDBDBD"/>
<path id="Vector_13" d="M253 77.3334C253.184 77.3334 253.333 77.1841 253.333 77C253.333 76.8159 253.184 76.6667 253 76.6667C252.816 76.6667 252.667 76.8159 252.667 77C252.667 77.1841 252.816 77.3334 253 77.3334Z" fill="#BDBDBD"/>
<path id="Vector_14" d="M239 79.6667C239.184 79.6667 239.333 79.5174 239.333 79.3333C239.333 79.1492 239.184 79 239 79C238.816 79 238.667 79.1492 238.667 79.3333C238.667 79.5174 238.816 79.6667 239 79.6667Z" fill="#BDBDBD"/>
<path id="Vector_15" d="M241.333 79.6667C241.517 79.6667 241.667 79.5174 241.667 79.3333C241.667 79.1492 241.517 79 241.333 79C241.149 79 241 79.1492 241 79.3333C241 79.5174 241.149 79.6667 241.333 79.6667Z" fill="#BDBDBD"/>
<path id="Vector_16" d="M243.667 79.6667C243.851 79.6667 244 79.5174 244 79.3333C244 79.1492 243.851 79 243.667 79C243.483 79 243.333 79.1492 243.333 79.3333C243.333 79.5174 243.483 79.6667 243.667 79.6667Z" fill="#BDBDBD"/>
<path id="Vector_17" d="M246 79.6667C246.184 79.6667 246.333 79.5174 246.333 79.3333C246.333 79.1492 246.184 79 246 79C245.816 79 245.667 79.1492 245.667 79.3333C245.667 79.5174 245.816 79.6667 246 79.6667Z" fill="#BDBDBD"/>
<path id="Vector_18" d="M248.333 79.6667C248.517 79.6667 248.667 79.5174 248.667 79.3333C248.667 79.1492 248.517 79 248.333 79C248.149 79 248 79.1492 248 79.3333C248 79.5174 248.149 79.6667 248.333 79.6667Z" fill="#BDBDBD"/>
<path id="Vector_19" d="M250.667 79.6667C250.851 79.6667 251 79.5174 251 79.3333C251 79.1492 250.851 79 250.667 79C250.483 79 250.333 79.1492 250.333 79.3333C250.333 79.5174 250.483 79.6667 250.667 79.6667Z" fill="#BDBDBD"/>
<path id="Vector_20" d="M253 79.6667C253.184 79.6667 253.333 79.5174 253.333 79.3333C253.333 79.1492 253.184 79 253 79C252.816 79 252.667 79.1492 252.667 79.3333C252.667 79.5174 252.816 79.6667 253 79.6667Z" fill="#BDBDBD"/>
<path id="Vector_21" d="M239 82.3334C239.184 82.3334 239.333 82.1841 239.333 82C239.333 81.8159 239.184 81.6667 239 81.6667C238.816 81.6667 238.667 81.8159 238.667 82C238.667 82.1841 238.816 82.3334 239 82.3334Z" fill="#BDBDBD"/>
<path id="Vector_22" d="M241.333 82.3334C241.517 82.3334 241.667 82.1841 241.667 82C241.667 81.8159 241.517 81.6667 241.333 81.6667C241.149 81.6667 241 81.8159 241 82C241 82.1841 241.149 82.3334 241.333 82.3334Z" fill="#BDBDBD"/>
<path id="Vector_23" d="M243.667 82.3334C243.851 82.3334 244 82.1841 244 82C244 81.8159 243.851 81.6667 243.667 81.6667C243.483 81.6667 243.333 81.8159 243.333 82C243.333 82.1841 243.483 82.3334 243.667 82.3334Z" fill="#BDBDBD"/>
<path id="Vector_24" d="M246 82.3334C246.184 82.3334 246.333 82.1841 246.333 82C246.333 81.8159 246.184 81.6667 246 81.6667C245.816 81.6667 245.667 81.8159 245.667 82C245.667 82.1841 245.816 82.3334 246 82.3334Z" fill="#BDBDBD"/>
<path id="Vector_25" d="M248.333 82.3334C248.517 82.3334 248.667 82.1841 248.667 82C248.667 81.8159 248.517 81.6667 248.333 81.6667C248.149 81.6667 248 81.8159 248 82C248 82.1841 248.149 82.3334 248.333 82.3334Z" fill="#BDBDBD"/>
</g>
<text id="text" fill="#BDBDBD" font-family="Roboto" font-size="14" font-weight="bold" letter-spacing="0em"><tspan x="63" y="80.7852">Select Date</tspan></text>
</g>
<text id="Date" fill="#3D1A16" font-family="Roboto" font-size="18" letter-spacing="0em"><tspan x="63" y="50.6523">Date</tspan></text>
</g>
<g id="duration-group">
<g id="clickable_2">
<g id="bg-duration" filter="url(#filter2_d)">
<rect x="301" y="60" width="213" height="30" fill="white"/>
</g>
<text id="text_2" fill="#78CAD4" font-family="Roboto" font-size="14" font-weight="bold" letter-spacing="0em"><tspan x="311" y="80.7852">60 mins - $71.40</tspan></text>
<g id="svg-timer">
<path id="Vector_26" d="M494 65C493.816 65 493.667 65.149 493.667 65.3333V69.764C493.667 69.9483 493.816 70.0973 494 70.0973C494.184 70.0973 494.333 69.9483 494.333 69.764V65.6727C499.326 65.8487 503.333 69.9653 503.333 75C503.333 80.1463 499.146 84.3333 494 84.3333C488.854 84.3333 484.667 80.1463 484.667 75C484.667 72.5133 485.633 70.1737 487.389 68.412C487.519 68.2813 487.518 68.0707 487.388 67.9407C487.257 67.8113 487.047 67.8113 486.917 67.9413C485.036 69.8287 484 72.3357 484 75C484 80.514 488.486 85 494 85C499.514 85 504 80.514 504 75C504 69.486 499.514 65 494 65Z" fill="#78CAD4"/>
<path id="Vector_27" d="M493.519 76.1774C493.723 76.4591 494.04 76.6361 494.387 76.6631C494.418 76.6657 494.449 76.6667 494.479 76.6667C494.793 76.6667 495.095 76.5427 495.319 76.3187C495.565 76.0731 495.69 75.7334 495.663 75.3864C495.636 75.0394 495.459 74.7231 495.177 74.5177L490.862 71.3967C490.73 71.3014 490.547 71.3161 490.431 71.4314C490.315 71.5474 490.301 71.7301 490.397 71.8624L493.519 76.1774ZM494.785 75.0574C494.909 75.1474 494.987 75.2864 494.999 75.4387C495.011 75.5907 494.955 75.7397 494.848 75.8477C494.74 75.9554 494.588 76.0104 494.438 75.9987C494.286 75.9871 494.147 75.9091 494.058 75.7864L492.154 73.1541L494.785 75.0574Z" fill="#78CAD4"/>
</g>
</g>
<text id="text_3" fill="#3D1A16" font-family="Roboto" font-size="18" letter-spacing="0em"><tspan x="311" y="50.6523">Duration</tspan></text>
</g>
<g id="specialities-group">
<g id="clickable_3">
<g id="bg-specialities" filter="url(#filter3_d)">
<rect x="547" y="60" width="213" height="30" fill="white"/>
</g>
<text id="deep tissue..." fill="#BDBDBD" font-family="Roboto" font-size="14" font-weight="bold" letter-spacing="0em"><tspan x="559" y="80.7852">deep tissue... </tspan></text>
</g>
<text id="text_4" fill="#3D1A16" font-family="Roboto" font-size="18" letter-spacing="0em"><tspan x="559" y="50.6523">Specialities</tspan></text>
<g id="svg-trophy">
<g id="Group">
<g id="Group_2">
<path id="Vector_28" d="M747.069 65.805C746.881 65.805 746.687 65.8294 746.493 65.8772L746.642 66.4837C747.823 66.1937 748.854 67.0928 748.854 68.215C748.854 70.8434 745.861 72.7806 744.613 73.1453L744.788 73.7453C746.373 73.2819 749.479 71.1178 749.479 68.215C749.479 66.8859 748.398 65.805 747.069 65.805Z" fill="#BDBDBD"/>
</g>
</g>
<g id="Group_3">
<g id="Group_4">
<path id="Vector_29" d="M733.625 68.215C733.625 67.0928 734.655 66.1925 735.837 66.484L735.986 65.8772C734.422 65.4928 733 66.6978 733 68.215C733 71.1181 736.106 73.2822 737.691 73.7453L737.866 73.1453C736.618 72.7803 733.625 70.8434 733.625 68.215Z" fill="#BDBDBD"/>
</g>
</g>
<g id="Group_5">
<g id="Group_6">
<path id="Vector_30" d="M742.323 76.6328H740.156C739.983 76.6328 739.843 76.7725 739.843 76.9453V78.1312C739.843 78.2253 739.886 78.315 739.96 78.3744C740.015 78.4197 740.085 78.4437 740.156 78.4437C740.178 78.4437 740.2 78.4412 740.222 78.4366C740.865 78.2975 741.614 78.2975 742.257 78.4366C742.35 78.4559 742.446 78.4334 742.52 78.3744C742.593 78.315 742.636 78.2259 742.636 78.1312V76.9453C742.636 76.7725 742.496 76.6328 742.323 76.6328ZM742.011 77.7587C741.51 77.6897 740.969 77.6894 740.468 77.7591V77.2578V77.2575H742.011V77.7587Z" fill="#BDBDBD"/>
</g>
</g>
<g id="Group_7">
<g id="Group_8">
<path id="Vector_31" d="M745.457 83.2207H737.021C736.849 83.2207 736.709 83.3604 736.709 83.5332V84.6876C736.709 84.8604 736.849 85.0001 737.021 85.0001H745.457C745.63 85.0001 745.77 84.8604 745.77 84.6876V83.5332C745.77 83.3604 745.63 83.2207 745.457 83.2207ZM745.145 84.3751H737.334V83.8457H745.145V84.3751Z" fill="#BDBDBD"/>
</g>
</g>
<g id="Group_9">
<g id="Group_10">
<path id="Vector_32" d="M744.916 78.8179H737.563C737.39 78.8179 737.25 78.9576 737.25 79.1304V83.5332C737.25 83.706 737.39 83.8457 737.563 83.8457H744.916C745.089 83.8457 745.229 83.7057 745.229 83.5332V79.1304C745.229 78.9576 745.089 78.8179 744.916 78.8179ZM744.604 83.2207H737.875V79.4429H744.604V83.2207Z" fill="#BDBDBD"/>
</g>
</g>
<g id="Group_11">
<g id="Group_12">
<path id="Vector_33" d="M743.667 80.0676H738.813C738.64 80.0676 738.5 80.2073 738.5 80.3801V82.2829C738.5 82.4557 738.64 82.5954 738.813 82.5954H743.667C743.839 82.5954 743.979 82.4554 743.979 82.2829V80.3801C743.979 80.2073 743.839 80.0676 743.667 80.0676ZM743.354 81.9704H739.125V80.6926H743.354V81.9704Z" fill="#BDBDBD"/>
</g>
</g>
<g id="Group_13">
<g id="Group_14">
<path id="Vector_34" d="M746.747 65.1572C746.647 65.0559 746.514 65 746.372 65H736.107C735.966 65 735.833 65.0556 735.733 65.1563C735.633 65.2572 735.578 65.3906 735.579 65.5325C735.581 65.7453 735.589 65.9547 735.599 66.1931C735.607 66.3856 735.618 66.5763 735.63 66.7659C735.786 69.0803 736.302 71.195 737.122 72.8816C737.243 73.1297 737.373 73.3728 737.509 73.6034C738.135 74.6669 738.852 75.4297 739.641 75.8713C739.724 75.9175 739.823 75.9234 739.909 75.8891C739.981 75.8916 740.063 75.8916 740.155 75.8916H742.575C742.61 75.9047 742.647 75.9113 742.684 75.9113C742.737 75.9113 742.789 75.8981 742.837 75.8716C743.626 75.4303 744.343 74.6672 744.97 73.6038C745.105 73.3734 745.235 73.1306 745.356 72.8822C746.176 71.1947 746.692 69.0797 746.848 66.7663C746.86 66.5766 746.871 66.3866 746.879 66.1925C746.888 65.9741 746.897 65.7553 746.899 65.5341C746.901 65.3922 746.847 65.2584 746.747 65.1572ZM746.255 66.1675C746.246 66.3547 746.236 66.5397 746.224 66.7241C746.074 68.9581 745.579 70.9928 744.794 72.6084C744.68 72.8422 744.558 73.0706 744.431 73.2866C743.898 74.1919 743.278 74.8738 742.634 75.2663H740.155C740.156 75.2666 739.945 75.2663 739.845 75.2663C739.2 74.8734 738.581 74.1919 738.048 73.2863C737.92 73.0697 737.798 72.8419 737.685 72.6084C736.9 70.9934 736.405 68.9588 736.255 66.7241C736.242 66.54 736.232 66.3547 736.223 66.1394C736.216 65.9684 736.209 65.7975 736.206 65.625H746.272C746.269 65.8072 746.262 65.9872 746.255 66.1675Z" fill="#BDBDBD"/>
</g>
</g>
<g id="Group_15">
<g id="Group_16">
<path id="Vector_35" d="M744.994 66.3532C744.989 66.4513 744.983 66.5438 744.977 66.6354C744.847 68.5716 744.406 70.3966 743.736 71.7741C743.642 71.9666 743.54 72.1573 743.433 72.3398C743.063 72.9685 742.648 73.4566 742.233 73.7516L742.596 74.261C743.082 73.9154 743.557 73.3607 743.972 72.657C744.087 72.4598 744.197 72.2548 744.298 72.0476C745.002 70.5991 745.465 68.692 745.601 66.6766C745.607 66.5813 745.612 66.4866 745.618 66.3857L744.994 66.3532Z" fill="#BDBDBD"/>
</g>
</g>
<g id="Group_17">
<g id="Group_18">
<path id="Vector_36" d="M742.323 75.2666H740.142C739.616 75.2666 739.563 76.2863 739.563 76.2966C739.563 76.3063 739.625 77.2582 740.156 77.2582H742.338C742.854 77.2582 742.916 76.3063 742.916 76.2966C742.916 76.2863 742.863 75.2666 742.323 75.2666ZM742.209 76.6332H740.27C740.229 76.5307 740.189 76.3604 740.188 76.2969C740.189 76.221 740.234 76.0122 740.279 75.8916H742.2C742.245 76.0122 742.29 76.221 742.291 76.2963C742.29 76.3604 742.25 76.531 742.209 76.6332Z" fill="#BDBDBD"/>
</g>
</g>
<g id="Group_19">
<g id="Group_20">
<path id="Vector_37" d="M742.389 77.8256C741.659 77.6685 740.82 77.6678 740.089 77.8256C739.054 78.0497 738.436 78.5375 738.436 79.13C738.436 79.3028 738.576 79.4425 738.749 79.4425H743.73C743.902 79.4425 744.042 79.3028 744.042 79.13C744.042 78.5372 743.424 78.0497 742.389 77.8256ZM739.282 78.8175C739.475 78.6722 739.792 78.5297 740.221 78.4366C740.865 78.2975 741.614 78.2975 742.257 78.4366C742.687 78.5297 743.004 78.6722 743.197 78.8175H739.282Z" fill="#BDBDBD"/>
</g>
</g>
</g>
</g>
<g id="search button">
<g id="search-button-bg" filter="url(#filter4_d)">
<rect x="812" y="42" width="150" height="40" rx="5" fill="#78CAD4"/>
</g>
<text id="text_5" fill="white" font-family="Roboto" font-size="14" font-weight="bold" letter-spacing="0em"><tspan x="865.098" y="66.7852">Search</tspan></text>
</g>
</g>
</g>
<defs>
<filter id="filter0_d" x="0" y="0" width="1006" height="126" filterUnits="userSpaceOnUse" color-interpolation-filters="sRGB">
<feFlood flood-opacity="0" result="BackgroundImageFix"/>
<feColorMatrix in="SourceAlpha" type="matrix" values="0 0 0 0 0 0 0 0 0 0 0 0 0 0 0 0 0 0 127 0"/>
<feOffset dy="1"/>
<feGaussianBlur stdDeviation="1.5"/>
<feColorMatrix type="matrix" values="0 0 0 0 0 0 0 0 0 0 0 0 0 0 0 0 0 0 0.25 0"/>
<feBlend mode="normal" in2="BackgroundImageFix" result="effect1_dropShadow"/>
<feBlend mode="normal" in="SourceGraphic" in2="effect1_dropShadow" result="shape"/>
</filter>
<filter id="filter1_d" x="51" y="59" width="217" height="34" filterUnits="userSpaceOnUse" color-interpolation-filters="sRGB">
<feFlood flood-opacity="0" result="BackgroundImageFix"/>
<feColorMatrix in="SourceAlpha" type="matrix" values="0 0 0 0 0 0 0 0 0 0 0 0 0 0 0 0 0 0 127 0"/>
<feOffset dy="1"/>
<feGaussianBlur stdDeviation="1"/>
<feColorMatrix type="matrix" values="0 0 0 0 0 0 0 0 0 0 0 0 0 0 0 0 0 0 0.25 0"/>
<feBlend mode="normal" in2="BackgroundImageFix" result="effect1_dropShadow"/>
<feBlend mode="normal" in="SourceGraphic" in2="effect1_dropShadow" result="shape"/>
</filter>
<filter id="filter2_d" x="299" y="59" width="217" height="34" filterUnits="userSpaceOnUse" color-interpolation-filters="sRGB">
<feFlood flood-opacity="0" result="BackgroundImageFix"/>
<feColorMatrix in="SourceAlpha" type="matrix" values="0 0 0 0 0 0 0 0 0 0 0 0 0 0 0 0 0 0 127 0"/>
<feOffset dy="1"/>
<feGaussianBlur stdDeviation="1"/>
<feColorMatrix type="matrix" values="0 0 0 0 0 0 0 0 0 0 0 0 0 0 0 0 0 0 0.25 0"/>
<feBlend mode="normal" in2="BackgroundImageFix" result="effect1_dropShadow"/>
<feBlend mode="normal" in="SourceGraphic" in2="effect1_dropShadow" result="shape"/>
</filter>
<filter id="filter3_d" x="545" y="59" width="217" height="34" filterUnits="userSpaceOnUse" color-interpolation-filters="sRGB">
<feFlood flood-opacity="0" result="BackgroundImageFix"/>
<feColorMatrix in="SourceAlpha" type="matrix" values="0 0 0 0 0 0 0 0 0 0 0 0 0 0 0 0 0 0 127 0"/>
<feOffset dy="1"/>
<feGaussianBlur stdDeviation="1"/>
<feColorMatrix type="matrix" values="0 0 0 0 0 0 0 0 0 0 0 0 0 0 0 0 0 0 0.25 0"/>
<feBlend mode="normal" in2="BackgroundImageFix" result="effect1_dropShadow"/>
<feBlend mode="normal" in="SourceGraphic" in2="effect1_dropShadow" result="shape"/>
</filter>
<filter id="filter4_d" x="809" y="40" width="156" height="46" filterUnits="userSpaceOnUse" color-interpolation-filters="sRGB">
<feFlood flood-opacity="0" result="BackgroundImageFix"/>
<feColorMatrix in="SourceAlpha" type="matrix" values="0 0 0 0 0 0 0 0 0 0 0 0 0 0 0 0 0 0 127 0"/>
<feOffset dy="1"/>
<feGaussianBlur stdDeviation="1.5"/>
<feColorMatrix type="matrix" values="0 0 0 0 0 0 0 0 0 0 0 0 0 0 0 0 0 0 0.25 0"/>
<feBlend mode="normal" in2="BackgroundImageFix" result="effect1_dropShadow"/>
<feBlend mode="normal" in="SourceGraphic" in2="effect1_dropShadow" result="shape"/>
</filter>
</defs>
</svg>
